<svg id="visual" viewBox="0 0 900 600" width="900" height="600" xmlns="http://www.w3.org/2000/svg" xmlns:xlink="http://www.w3.org/1999/xlink" version="1.1"><rect x="0" y="0" width="900" height="600" fill="#002233"></rect><path d="M0 212L21.5 208.2C43 204.3 86 196.7 128.8 194.8C171.7 193 214.3 197 257.2 183C300 169 343 137 385.8 125C428.7 113 471.3 121 514.2 121C557 121 600 113 642.8 120.3C685.7 127.7 728.3 150.3 771.2 161.8C814 173.3 857 173.7 878.5 173.8L900 174L900 0L878.5 0C857 0 814 0 771.2 0C728.3 0 685.7 0 642.8 0C600 0 557 0 514.2 0C471.3 0 428.7 0 385.8 0C343 0 300 0 257.2 0C214.3 0 171.7 0 128.8 0C86 0 43 0 21.5 0L0 0Z" fill="#0066FF" stroke-linecap="round" stroke-linejoin="miter"></path></svg>